<?xml version="1.0" encoding="UTF-8"?>
<svg version="1.1" xmlns="http://www.w3.org/2000/svg" width="192" height="205">
<path d="M0 0 C7.92 0 15.84 0 24 0 C24 34.65 24 69.3 24 105 C13.75463623 106.13837375 13.75463623 106.13837375 9.1875 106.125 C7.84751953 106.12886719 7.84751953 106.12886719 6.48046875 106.1328125 C4 106 4 106 0 105 C0 97.74 0 90.48 0 83 C-16.5 83 -33 83 -50 83 C-50 97.52 -50 112.04 -50 127 C-57.92 127 -65.84 127 -74 127 C-74.33 92.68 -74.66 58.36 -75 23 C-66.75 23 -58.5 23 -50 23 C-50 34.88 -50 46.76 -50 59 C-33.5 59 -17 59 0 59 C0 39.53 0 20.06 0 0 Z " fill="#1C1C1C" transform="translate(122,37)"/>
</svg>
